# xmcd
# Track frame offsets:
# 150
# 15747
# 29017
# 46645
# 60535
# 73152
# 87285
# 103885
# 117137
# 130325
#
# Disc length: 1916 seconds
# Revision: 0
# Processed by: cddbd v1.4PL0 Copyright (c) Steve Scherf et al.
# Submitted via: VisiTrax 2.9.5.181 - For more info visit www.synapsa.com
#
DISCID=86077a0a
DTITLE=Doug Stone - Pure Country
DYEAR=1999
DGENRE=
TTITLE0=A Jukebox With A Country Song
TTITLE1=Burning Down The Town
TTITLE2=She Used TO Love Me A Lot
TTITLE3=Addicted To A Dollar
TTITLE4=The Workin' End Of A Hoe
TTITLE5=Leave Me The Radio
TTITLE6=This Empty House
TTITLE7=That's A Lie
TTITLE8=Love, You Took Me By Surprise
TTITLE9=Warning Labels
EXTD=Sony Music Special Product A 33571 c.99
EXTT0=
EXTT1=
EXTT2=
EXTT3=
EXTT4=
EXTT5=
EXTT6=
EXTT7=
EXTT8=
EXTT9=
PLAYORDER=
